<svg width="100" height="100" viewBox="0 0 100 100" fill="none" xmlns="http://www.w3.org/2000/svg">
<path d="M50.001 0C33.65 0 20.25 13.36 20.25 29.666C20.25 35.984 22.268 41.856 25.683 46.682L46.37 82.445C49.267 86.23 51.193 85.511 53.602 82.245L76.42 43.415C76.88 42.581 77.242 41.693 77.557 40.786C79.0045 37.2573 79.749 33.48 79.749 29.666C79.75 13.36 66.354 0 50.001 0ZM50.001 13.9C58.807 13.9 65.809 20.886 65.809 29.666C65.809 38.446 58.807 45.43 50.001 45.43C41.196 45.43 34.191 38.448 34.191 29.667C34.191 20.886 41.196 13.901 50 13.901" fill="#FF0000"/>
<path d="M68.913 48.908L68.865 49.034L68.907 48.919L68.913 48.908ZM34.006 69.057C19.88 71.053 10 75.828 10 82.857C10 92.325 26.508 100 50 100C73.492 100 90 92.325 90 82.857C90 75.828 80.121 71.053 65.996 69.057L64.039 72.389C74.685 73.866 82 76.97 82 80.572C82 85.622 67.673 89.715 50 89.715C32.327 89.715 18 85.622 18 80.572C17.999 76.982 25.266 73.881 35.945 72.398L34.006 69.057Z" fill="#FF0000"/>
</svg>
