<svg width="1024" height="1024" viewBox="0 0 1024 1024" fill="none" xmlns="http://www.w3.org/2000/svg">
<path d="M800 416C800 339.618 769.657 266.364 715.647 212.353C661.636 158.343 588.382 128 512 128C435.618 128 362.364 158.343 308.353 212.353C254.343 266.364 224 339.618 224 416C224 534.144 318.528 688.128 512 872.576C705.472 688.128 800 534.144 800 416ZM512 960C277.312 746.688 160 565.312 160 416C160 322.644 197.086 233.111 263.098 167.098C329.111 101.086 418.644 64 512 64C605.356 64 694.889 101.086 760.902 167.098C826.914 233.111 864 322.644 864 416C864 565.312 746.688 746.688 512 960Z" fill="#F2921F"/>
<path d="M512 512C537.461 512 561.879 501.886 579.882 483.882C597.886 465.879 608 441.461 608 416C608 390.539 597.886 366.121 579.882 348.118C561.879 330.114 537.461 320 512 320C486.539 320 462.121 330.114 444.118 348.118C426.114 366.121 416 390.539 416 416C416 441.461 426.114 465.879 444.118 483.882C462.121 501.886 486.539 512 512 512ZM512 576C469.565 576 428.869 559.143 398.863 529.137C368.857 499.131 352 458.435 352 416C352 373.565 368.857 332.869 398.863 302.863C428.869 272.857 469.565 256 512 256C554.435 256 595.131 272.857 625.137 302.863C655.143 332.869 672 373.565 672 416C672 458.435 655.143 499.131 625.137 529.137C595.131 559.143 554.435 576 512 576Z" fill="#F2921F"/>
</svg>
