<svg class="svg-icon" style="width: 1em;height: 1em;vertical-align: middle;fill: currentColor;overflow: hidden;" viewBox="0 0 1024 1024" version="1.1" xmlns="http://www.w3.org/2000/svg"><path d="M224.544 78.528c8.632-7.932 20.104-7.3 30.412-9.344 95.316-18.924 190.72-37.416 286.132-55.824 6.992-1.348 14.048-3.54 21.36-2.428 12.456 1.892 19.236 11.204 24.796 20.836a23654.048 23654.048 0 0 1 98.032 171.564c20.208 35.704 41.664 70.712 60.328 107.292 8.7 17.044 13.296 35.044 12.296 54.14-1.524 29.22 3.204 58.224 2.564 87.404l-3.936-3.472c0.736-13.9 0.144-27.824-2.364-41.44-2.528-13.696-2.356-28.24-10.588-40.484-1.816-15.24-4.016-17.576-16.016-15.288a53475.668 53475.668 0 0 0-173.848 33.396c-42.488 8.236-85.028 16.232-127.332 25.324-9.752 2.092-14.316-1.696-19.736-8.072-9.8-11.528-13.332-26.18-20.596-38.932-17.248-30.264-34.496-60.528-51.772-90.776-22.444-39.288-45.172-78.416-67.284-117.892-14.192-25.312-30.284-49.564-42.448-76.004z" fill="#FEE242" /><path d="M220.372 379.472c0.06-13.192-6.556-24.9-8.172-37.856-2.608-20.86-1.956-41.704-1.944-62.564 0.024-39.272 0.22-78.548 0.764-117.812 0.208-15.192-4.956-29.972-3.064-45.172 1.44-11.576 0.704-23.924 10-33.176 1.056 6.568 4.696 12.024 7.876 17.604 21.848 38.324 43.864 76.552 65.764 114.844 22.62 39.544 45.212 79.096 67.736 118.688 9.676 17.008 19.94 33.72 27.488 51.86 2.152 19.5 5.908 38.976 6.156 58.5 0.816 62.908-0.06 125.836 0.656 188.744 0.164 14.312-0.356 29.248 6.152 42.896-12.016-2.096-16.156-12.252-21.288-21.168-14.156-24.572-28.064-49.28-42.092-73.92-24.34-42.756-48.5-85.612-73.136-128.196-14.18-24.496-26.936-49.824-42.896-73.272z" fill="#9B8151" /><path d="M756.524 448.696l3.936 3.472c1.568 7.584 5.108 14.416 9.884 20.232 10.596 12.924 17.248 28.276 26.592 41.872 18.604 27.052 21.688 58.308 26.056 89.3 4.272 30.304 8.3 60.644 12.376 90.976 1.872 13.944-1.932 28.092 1.436 41.996l0.38 47.804-0.624 8.572c-1.812 6.36-3.692 12.672-10.74 15.376-22.936 11.76-48.508 12.176-73.072 16.904l-6.724-17.132c4.936-0.74 9.852-1.816 14.812-2.148 19.9-1.344 37.12-9.752 53.792-19.804 2.732-1.644 2.688-4.044 2.604-6.516-0.504-15.064 1.148-30.132-0.832-45.2-1.764-13.416-2.92-14.596-16.58-12.904-1.416 0.176-2.784 0.86-4.188 0.916-16.072 0.692-31.56 6.788-47.876 5.128 1.98-0.7 3.908-1.668 5.944-2.068 15.812-3.08 31.68-5.892 47.464-9.112 12.82-2.62 20.852-10.94 19.204-21.916-5.108-34.008-8.912-68.236-16.372-101.864 1.1-23.888-10.244-36.692-29.64-33.02a14871.228 14871.228 0 0 0-113.828 21.976c-48.8 9.636-97.536 19.6-146.364 29.08-4.224 0.82-10.28 3.524-12.8-3.648 4.32-0.176 8.748 0.212 12.94-0.608 79.428-15.512 158.78-31.428 238.288-46.544 13.528-2.572 26.784-8.364 41.092-5.916 4.088 0.7 4.084-1.688 3.412-4.516-2.668-11.232-9.384-4.304-14.78-3.272-29.18 5.6-58.364 11.192-87.544 16.796-57.676 11.084-115.396 21.944-172.96 33.572-7.028 1.42-16.472-0.92-20.784 8.228-5.96-0.968-4.116-6.876-6.1-10.272-15.116-25.86-29.456-52.18-44.48-78.096-2.672-4.616-4.72-10.916-11.856-11.284 4.776-5.336 11.656-5.132 17.812-6.352 65.236-12.952 130.32-26.816 195.852-38.048 34.404-5.916 68.112-20.648 104.268-11.96z" fill="#FD5F53" /><path d="M215.22 455.54c-0.02-18.836-0.068-37.672-0.04-56.512 0.008-5.728 0.46-11.392 4.352-16.092 0.528 5.512 2.952 10.328 5.636 15.024 16.716 29.204 33.496 58.372 50.184 87.588 29.168 51.064 58.644 101.952 87.232 153.34 9.368 16.844 23.612 32.132 26.124 51.524 4.228 32.644 5.912 65.668 3.948 98.692-4.508-0.132-5.488-3.928-7.28-6.936-3.796-6.384-7.664-12.716-11.5-19.072-0.62-8.308 0.504-16.764-2.16-24.9 0.336-5.628-1.908-10.556-4.544-15.24-12.464-22.104-25.472-43.92-37.432-66.292-5.688-10.632-12.36-16.9-24.988-13.148-4.532-10.384-5.472-21.56-7.176-32.564-1.964-13.352-6.176-26.1-9.788-39.064-5.872-21.084-12.14-41.876-23.56-60.752-14.592-24.12-16.832-25.052-43.792-18.256-8.456-11.504-4.048-24.812-5.216-37.34z" fill="#D23939" /><path d="M216.072 617.528c-3.512-15.552-2.624-31.432-3.52-47.18 6.036-5.956 6.128-14.708 10.176-21.596 2.4-0.476 3.912-1.94 4.7-4.216 4.64 0.728 6.136 4.924 7.58 8.16a329.292 329.292 0 0 1 22.288 70.164c3.096 15.524 1.468 32.296 10.632 46.456 7.308 9.424 13.612 20.284 27.968 19.72 4.604-0.24 4.524-3.58 4.52-6.856-0.012-6.372-0.04-12.744-0.06-19.116 1.728-5.072-3.428-12.084 4.372-15.436 18.852 30.248 38.368 60.124 51.676 93.436 3.78 16.56 1.872 33.376 2.156 50.08 0.272 15.968 0.06 15.972 13.248 19-0.772 3.064 0.812 6.82-2.676 9.084l-0.068-0.056c-0.936-11.944-6.816-7.868-12.66-3.912-8.136-3.38-10.376-11.588-14.292-18.164-11.192-18.792-21.644-38.028-32.66-56.928-5.024-8.62-7.408-17.816-7.92-27.636-0.348-6.72-3.58-9.228-10.508-8.752-34.876 2.384-49.84-7.128-62.916-39.992-3.144-7.904-5.192-16.24-7.748-24.38 7.092-0.228 4.504 7.156 7.808 9.952 1.868 1.58 3.092 4.272 6.112 3.74 3.112-0.552 3.796-3.336 4-5.76 1.36-16.532-1.752-32.18-9.852-46.744-1.192-2.144-3.152-3.104-5.416-2.508-2.42 0.64-3.12 2.92-3.24 5.116-0.256 4.672-0.272 9.36-0.388 14.04l-3.312 0.284z" fill="#332F2F" /><path d="M386.816 385.888c-7.548-18.14-17.812-34.848-27.488-51.86-22.52-39.592-45.116-79.148-67.736-118.688-21.904-38.292-43.916-76.52-65.764-114.844-3.18-5.58-6.82-11.04-7.876-17.604 1.408-2.652 4-3.504 6.588-4.36 12.164 26.436 28.256 50.688 42.44 76 22.112 39.476 44.84 78.604 67.284 117.892 17.276 30.248 34.524 60.512 51.772 90.776 7.264 12.752 10.796 27.404 20.596 38.932 5.42 6.372 9.984 10.164 19.736 8.072 42.304-9.092 84.844-17.088 127.332-25.324 57.928-11.228 115.88-22.36 173.848-33.396 12-2.288 14.2 0.048 16.016 15.288-1.08-0.016-2.196-0.22-3.244-0.024-47.1 8.948-94.236 17.716-141.28 26.968-51.628 10.156-103.124 20.972-154.772 31.012-13.004 2.528-27.332 7.64-36.668-8.176-3.832-6.5-7.92-12.852-12.06-19.156-2.628-4.028-2.648-10.084-8.724-11.508z" fill="#CE952B" /><path d="M873.968 907.696c1.68 7.328 0.94 14.752 0.532 22.1-0.256 4.612-1.496 9.256-7.432 10-0.524-4.036-2.812-3.944-6.212-3.304-73.392 13.812-146.564 28.812-220.232 41.14-8.452 1.416-18.4 1.536-23.5-3.484-9.616-9.456-21.76-8.152-31.064-7.084-30.444 3.504-60.492 10.424-90.696 16.04 0.252-3.584-3.096-7.012-0.452-10.688 10.5 0.756 20.652-1.572 30.86-3.428 41.124-7.504 82.228-15.096 123.376-22.444a30036.472 30036.472 0 0 1 142.46-25.024c27.432-4.756 54.908-9.224 82.36-13.824z" fill="#6A6A6A" /><path d="M873.968 907.696c-27.452 4.6-54.928 9.072-82.36 13.824a30036.472 30036.472 0 0 0-142.46 25.024c-41.148 7.348-82.248 14.94-123.376 22.444-10.208 1.86-20.36 4.188-30.86 3.428l-2.132-10.916 2.448-0.136c21.408-1.88 42.104-7.668 63.12-11.684 13.944-2.66 28.452-3.164 41.524-9.656 3.124 2.832 6.448 1.72 10.116 1.08 31.372-5.5 62.728-11.132 93.712-18.516 16.236-3.868 33.4-3.96 48.668-11.788 23.104-4.492 46.3-8.616 69.304-13.592 15.912-3.444 32.772-3.172 47.484-11.56l5.736 6.62c0.576 5.192 1.192 10.396-0.924 15.428z" fill="#7C7777" /><path d="M495.368 983.104c30.2-5.612 60.248-12.536 90.692-16.04 9.3-1.072 21.444-2.376 31.064 7.084 5.1 5.02 15.048 4.9 23.5 3.484 73.668-12.328 146.84-27.328 220.232-41.14 3.4-0.64 5.688-0.732 6.212 3.304-38.66 10.068-78.168 15.98-117.264 23.88-79.636 16.1-159.468 31.228-239.248 46.616-5.128 0.992-10.448 3.316-15.728 0.232l0.54-27.42z" fill="#5B5B5B" /><path d="M392.656 789.104c1.968-33.028 0.284-66.052-3.944-98.696-2.512-19.392-16.756-34.68-26.124-51.524-28.584-51.388-58.06-102.276-87.232-153.34-16.692-29.22-33.468-58.388-50.184-87.588-2.684-4.696-5.108-9.508-5.636-15.024l0.836-3.46c15.956 23.448 28.716 48.776 42.888 73.268 24.636 42.584 48.796 85.436 73.136 128.196 14.032 24.64 27.94 49.352 42.092 73.92 5.132 8.916 9.272 19.072 21.288 21.164l-0.048-0.032c2.952 3.516 6.828 4.436 11.188 3.976l10.464 17.764 0.176 84.96c-9.616 2.22-19.24 4.432-28.856 6.648l-0.044-0.232z" fill="#A5322C" /><path d="M388.956 920.692c-5.916-6.8-4.472-15.26-4.984-23.176-0.624-9.64 0.744-19.392-1.5-28.96 5.852-8.232 6.688-19.36 15.084-26.116 4.132 0.192 4.92 3.728 6.34 6.5 14.344 28.04 20.888 58.328 26.776 88.984 1.66 8.632-3.208 20.048 8.02 25.912 2.468 7.728 7 13.796 14.096 17.904 6.5 3.76 10.716 9.204 11.924 16.76-14.516 9.084-28.796 5.568-41.504-2.872-19.632-13.036-27.512-33.432-30.964-55.884 4.644 0.516 4.304 5.24 6.556 7.772 1.464 1.644 2.964 3.26 5.408 2.948 2.604-0.332 3.568-2.36 3.768-4.568 1.532-16.908-1.48-32.968-9.416-48.008-0.984-1.868-2.784-3.532-5.232-3.176-3.016 0.44-4.108 2.856-4.188 5.488-0.196 6.828-0.14 13.66-0.184 20.492z" fill="#332F2F" /><path d="M267.928 669.316c-9.168-14.16-7.536-30.932-10.632-46.456a329.52 329.52 0 0 0-22.288-70.164c-1.44-3.236-2.936-7.432-7.584-8.164-2.74-0.58-5.5-0.64-8.032-2.38-3.144-2.152-4.744-8.332-10.18-5.12-4.948 2.92-7.244 7.616-6.224 13.56l-2.432-0.036c-5.14-7.416-1.828-15.236-0.732-22.776 1.008-6.932 3.18-13.7 4.84-20.54 4.684-1.144 4.176-7.676 9-8.672 7.848 3.54 17.764 2.552 23.248 11.324 7.028 11.236 15.14 21.792 20.332 34.132 8.5 20.2 17.288 40.284 25.572 60.572 3.048 7.46 7.212 10.308 14.756 6.364 1.708 11.004 2.648 22.18 7.176 32.564l-0.024 4.108c-7.8 3.352-2.644 10.368-4.372 15.436-8.948-1.384-10.264-9.3-12.856-15.688-13.736-33.828-24.228-68.956-39.956-101.972-4.632-9.72-9.92-19.66-18.072-27.068l-2.632 1.652 23.544 52.2c2.208 9.596 4.18 19.256 6.684 28.78 2.88 10.936 4.292 22.164 7.156 33.164 2.908 11.16 6.176 23.092 3.708 35.18z" fill="#7C7777" /><path d="M438.696 963.832c-11.232-5.864-6.364-17.276-8.02-25.912-5.892-30.656-12.432-60.944-26.776-88.984-1.42-2.772-2.208-6.308-6.34-6.5-22.364-21.476-22.276-11.568-26.516 7.712-5.416-5.004-3.412-11.188-2.608-17.104 0.624-4.596 1.6-9.156 0.696-13.816 3.488-2.264 1.904-6.024 2.672-9.084 1.656-0.94 2.008-2.492 1.988-4.228 4.36-1.468 4.08-7.508 8.648-8.784 16.648 4.78 24.208 18.076 31.472 32.292 17.492 34.248 28.212 71.124 42.5 106.608 3.036 7.532 6.784 14.58 17.024 12.612 2.96 7.732 1.804 15.844 2.2 23.812-6.936 1.072-11.168-1.396-14.176-8.212-6.38-14.456-12.676-28.94-17.372-44.02-7.888-25.312-16.416-50.352-27.676-74.396-2.02-4.308-3.88-8.816-11.784-12.612 19.556 43.456 27.64 86.84 34.068 130.616z" fill="#6A6A6A" /><path d="M438.696 963.832c-6.428-43.776-14.512-87.16-34.076-130.612 7.904 3.796 9.76 8.304 11.784 12.612 11.256 24.044 19.788 49.084 27.676 74.396 4.696 15.08 10.992 29.564 17.372 44.02 3.004 6.816 7.24 9.28 14.172 8.212 4.592 7.104-0.992 16.084 4.248 23.068-5.672-2.16-9.804 3.532-15.164 2.972-1.208-7.56-5.424-13-11.924-16.76-7.088-4.112-11.616-10.18-14.088-17.908z" fill="#5B5B5B" /><path d="M874.896 892.264c-1.912-2.212-3.82-4.416-5.736-6.62-0.016-11.488-0.044-22.972-0.044-34.456 0.008-25.452-7.096-32.608-32.18-32.392l0.152-19.5c6.276-1.876 8.224 3.696 11.956 8.5 1.064-9.764-1.512-17.036-4.728-24.148-0.832-1.848-0.76-5-3.332-4.976-3.224 0.024-1.736 4.256-3.804 5.676l-0.38-47.804c20.368 41.536 34.328 84.964 38.732 131.224 0.784 8.208 5.568 16.48-0.636 24.496z" fill="#AAA8A8" /><path d="M479.88 995.524c-5.24-6.98 0.344-15.96-4.248-23.068-0.396-7.968 0.76-16.084-2.2-23.812-2.844-17.06-2.508-17.596 12.572-20.108 0.12 7.044 0.152 14.092 0.384 21.132 0.168 4.944 0.188 10.096 6.4 11.832l2.132 10.916c-2.644 3.676 0.704 7.104 0.452 10.688a31648.12 31648.12 0 0 1-0.54 27.416c-7.892-2.104-8.296-11.664-14.952-14.996z" fill="#332F2F" /><path d="M388.956 920.692c0.044-6.832-0.008-13.664 0.188-20.488 0.08-2.632 1.172-5.048 4.188-5.488 2.448-0.356 4.248 1.308 5.232 3.176 7.936 15.04 10.948 31.1 9.416 48.008-0.2 2.208-1.164 4.236-3.768 4.568-2.444 0.312-3.944-1.304-5.408-2.948-2.252-2.536-1.912-7.256-6.556-7.772-2.376-6.132-3.672-12.452-3.292-19.056zM219.376 617.244c0.116-4.68 0.132-9.368 0.388-14.04 0.12-2.196 0.82-4.476 3.24-5.116 2.268-0.596 4.228 0.364 5.416 2.508 8.104 14.564 11.216 30.212 9.852 46.744-0.2 2.424-0.884 5.212-4 5.76-3.016 0.536-4.244-2.16-6.112-3.74-3.304-2.796-0.712-10.18-7.808-9.952l-0.188-10.596c0.464-3.912 0.696-7.804-0.788-11.568z" fill="#AAA8A8" /><path d="M371.04 850.148c4.244-19.276 4.152-29.188 26.516-7.712-8.396 6.756-9.236 17.888-15.084 26.116-5.092-5.336-9.312-11.216-11.432-18.404z" fill="#5B5B5B" /><path d="M213.664 498.564c-4.824 1-4.32 7.528-9 8.672-0.4-18.052-4.1-36.784 10.564-51.728 1.164 12.56-3.248 25.868 5.212 37.372l-6.776 5.684z" fill="#332F2F" /><path d="M200.552 550.556l2.432 0.032c6.408-2.444 12.58-7.476 19.744-1.836-4.052 6.892-4.14 15.64-10.176 21.596-5.376-5.768-10.476-11.696-12-19.792z" fill="#5B5B5B" /><path d="M356.408 815.26c5.84-3.956 11.72-8.036 12.66 3.912l-12.66-3.912z" fill="#6A6A6A" /><path d="M219.376 617.244c1.484 3.764 1.252 7.656 0.796 11.568-5.368-2.308-3.6-7.208-4.1-11.28 1.1-0.1 2.2-0.196 3.304-0.288z" fill="#5B5B5B" /><path d="M386.816 385.888c6.076 1.42 6.092 7.48 8.736 11.504a475.096 475.096 0 0 1 12.06 19.156c9.332 15.816 23.66 10.704 36.668 8.176 51.648-10.04 103.144-20.856 154.772-31.012 47.048-9.248 94.18-18.016 141.28-26.968 1.048-0.196 2.164 0.004 3.244 0.024 8.236 12.248 8.064 26.788 10.588 40.484 2.508 13.616 3.096 27.54 2.364 41.44-36.156-8.688-69.864 6.044-104.256 11.94-65.532 11.236-130.616 25.096-195.852 38.048-6.156 1.22-13.036 1.016-17.808 6.352l-4.396 2.316c-4.376 3.572-11.404 4.912-10.744 12.732-3.916 9.78-4.42 20.048-4.276 30.4l-4.012 1.46c-4.544 1.984-6.416 6.212-6.452 10.416-0.144 18.24 0.54 36.484 0.388 54.724-0.108 13.248 8.752 23.004 12.42 34.748l-0.34 6.82c-2.088 0.564-4.56-6.852-6.332 0.304-6.264 4.416-3.372 11.288-4.58 17.06l-10.548-0.02 0.048 0.032c-6.508-13.64-5.992-28.58-6.152-42.892-0.716-62.908 0.16-125.836-0.656-188.744-0.256-19.524-4.012-39-6.164-58.5z" fill="#A67823" /><path d="M804.008 592.576c7.46 33.628 11.26 67.856 16.372 101.864 1.648 10.976-6.384 19.296-19.204 21.916-15.784 3.224-31.652 6.036-47.464 9.112-2.04 0.4-3.964 1.368-5.944 2.068l0.22-0.012c-3.864-0.192-7.744-0.476-10.984 2.288l0.16-0.124c-3.912-0.432-7.748-0.532-10.98 2.288l0.164-0.128c-4.036-0.284-8.104-0.748-11.516 2.216a1.176 1.176 0 0 0-1.28 0.14c-3.344-0.084-6.804-0.712-9.54 2.032a1.148 1.148 0 0 0-1.272 0.14c-3.796 0.108-7.752-0.72-11.14 1.852l-6.148 0.916c-44.368 8.56-88.772 16.928-133.068 25.832-9.172 1.844-16.992 0.784-24.26-4.916-5.376-9.2-4.744-19.924-7.556-29.772-0.128-2.136-0.168-4.284-0.408-6.412-2.92-26.056-10.248-51.556-9.824-78.032 5.188-9.104 14.292-11.16 23.492-12.952 35.988-7.008 71.984-13.952 107.968-20.98 44.476-8.684 88.924-17.508 133.416-26.096 10.456-2.024 20.912-2.772 28.796 6.76z" fill="#332F2F" /><path d="M752.372 910.796c-15.268 7.828-32.432 7.92-48.668 11.788-30.984 7.384-62.34 13.016-93.712 18.516-3.668 0.64-6.992 1.752-10.116-1.08-0.816-17.204-1.28-34.408 0.32-51.584 0.344-3.756 0.916-7.276-3.696-8.804a8.472 8.472 0 0 1 0-1.624c1.048-10.848-0.516-21.828 2.272-32.648 0.964-3.744 1.484-8.54-2.272-11.92 3.412-6.084 9.084-8.92 15.52-10.188 18.192-3.572 36.36-7.336 54.668-10.204 24.268-3.8 47.688-13.036 72.788-11.54l-0.064-0.056 1.92 2.324c1.568 1.424 3.128 2.856 4.692 4.284l6.72 17.132c0.044 3.74 0.084 7.476 0.12 11.22-0.252 4.264-0.212 8.572-0.796 12.788-2.864 20.556-2.444 41.08 0.304 61.596z" fill="#5B5B5B" /><path d="M804.008 592.576c-7.884-9.532-18.34-8.78-28.8-6.76-44.488 8.588-88.936 17.416-133.416 26.096-35.984 7.028-71.98 13.972-107.968 20.98-9.2 1.792-18.3 3.848-23.492 12.952-5.152-7.276-10.968-14.172-15.344-21.888-19.108-33.692-37.72-67.66-56.736-101.404-2.748-4.868-4.588-9.624-4.044-15.2 1.468-0.768 2.932-1.54 4.4-2.316 7.136 0.372 9.18 6.668 11.852 11.284 15.024 25.916 29.364 52.24 44.48 78.096 1.984 3.4 0.14 9.304 6.108 10.272l0.332 2.264c2.516 7.172 8.576 4.468 12.8 3.648 48.828-9.476 97.564-19.44 146.364-29.08a14871.228 14871.228 0 0 1 113.828-21.976c19.392-3.66 30.736 9.144 29.636 33.032z" fill="#FD504A" /><path d="M746.028 808.064c-1.564-1.428-3.124-2.86-4.692-4.284 0.06-1.356-0.6-2.112-1.92-2.324l0.064 0.056c-6.828-10.492-14.4-13.436-28.672-10.484-8.376 1.732-16.624 4.084-25.276 4.04-6.004-6.256-14.06-9.776-20.56-15.272-7.952-6.736-15.264-13.236-27.072-8.856-4.084 1.512-9.248 0.44-13.876 0.044-3.176-0.268-6.868-1.164-7.44-4.952-0.604-3.992 2.964-5.46 5.94-6.592 13.664-5.2 27.488-9.72 41.976-12.312 7.288-1.304 15.844-0.46 20.944-7.972l6.148-0.912c4.484 3.968 7.712 0.436 11.14-1.86a1.148 1.148 0 0 1 1.272-0.14c3.328 0.024 6.936 1.368 9.54-2.032a1.176 1.176 0 0 1 1.28-0.14c3.932-0.244 8.344 1.988 11.516-2.216l-0.164 0.128c3.772-0.216 8.016 1.796 10.98-2.288l-0.16 0.124c3.772-0.212 8.024 1.824 10.984-2.288l-0.22 0.012c16.316 1.66 31.804-4.436 47.876-5.128 1.404-0.056 2.772-0.74 4.188-0.916 13.656-1.696 14.812-0.516 16.58 12.904 1.98 15.068 0.328 30.136 0.832 45.2 0.084 2.472 0.124 4.872-2.604 6.516-16.672 10.056-33.896 18.46-53.792 19.804-4.96 0.324-9.876 1.4-14.812 2.14z m-43.576-51.804c27.132-2.716 55.888-6.284 83.508-15.804 2.536-0.876 7.752-0.388 6.624-5.112-0.912-3.828-5.024-3.188-8.288-2.756-14.884 1.956-29.836 3.508-44.636 5.964-14.468 2.404-28.9 5.248-42.784 10.216-2.648 0.944-6.78 1.248-6.356 4.616 0.576 4.548 5.128 2.316 8.012 2.86 0.696 0.132 1.432 0.016 3.92 0.016zM501.376 606.96c-0.108-0.756-0.216-1.512-0.332-2.264 4.304-9.148 13.752-6.804 20.776-8.228 57.568-11.624 115.284-22.484 172.96-33.572 29.18-5.604 58.364-11.196 87.544-16.796 5.4-1.032 12.112-7.956 14.78 3.272 0.672 2.828 0.68 5.216-3.412 4.516-14.308-2.444-27.568 3.348-41.092 5.916-79.508 15.112-158.86 31.032-238.288 46.544-4.188 0.824-8.616 0.436-12.936 0.612z" fill="#FE8781" /><path d="M752.868 836.416l-0.12-11.22c24.568-4.728 50.136-5.14 73.076-16.908l0.124 12.628c-23.94 7.156-48.976 9.156-73.08 15.5z" fill="#A5322C" /><path d="M837.184 784.348c2.072-1.416 0.584-5.652 3.804-5.676 2.572-0.024 2.5 3.128 3.332 4.976 3.216 7.112 5.788 14.384 4.728 24.148-3.736-4.804-5.68-10.376-11.956-8.504l-0.532-6.376 0.624-8.568z" fill="#FEFEFE" /><path d="M836.56 792.916l0.532 6.376-0.152 19.504c-3.664 0.712-7.328 1.416-10.992 2.12l-0.124-12.628c7.044-2.7 8.924-9.012 10.736-15.372z" fill="#D23939" /><path d="M213.664 498.564l6.776-5.684c26.96-6.792 29.2-5.856 43.792 18.26 11.416 18.876 17.684 39.664 23.56 60.752 3.608 12.96 7.824 25.712 9.788 39.064-7.544 3.944-11.712 1.096-14.756-6.364-8.284-20.284-17.072-40.372-25.572-60.572-5.192-12.34-13.304-22.9-20.332-34.132-5.492-8.776-15.408-7.784-23.256-11.324zM304.728 647.624l0.024-4.108c12.628-3.752 19.3 2.516 24.988 13.148 11.964 22.372 24.968 44.188 37.432 66.292 2.64 4.684 4.884 9.608 4.544 15.248l-15.312 2.86c-13.308-33.312-32.824-63.192-51.676-93.44z" fill="#AAA8A8" /><path d="M356.404 741.064l15.312-2.86c2.668 8.124 1.54 16.584 2.16 24.884l-0.084 42.828c0.024 1.736-0.332 3.284-1.988 4.228-13.184-3.028-12.972-3.032-13.244-19-0.284-16.708 1.624-33.524-2.156-50.08z" fill="#5B5B5B" /><path d="M373.792 805.916l0.084-42.828c3.836 6.364 7.704 12.696 11.5 19.08 1.792 3.008 2.768 6.804 7.28 6.936a1.464 1.464 0 0 0 0.056 0.228c-1.256 2.248-5.088 0.444-5.756 3.64l-4.52 4.16c-4.564 1.276-4.284 7.312-8.644 8.784z" fill="#332F2F" /><path d="M267.928 669.316c2.468-12.088-0.8-24.02-3.704-35.184-2.864-11-4.276-22.228-7.156-33.164-2.504-9.524-4.48-19.184-6.684-28.78 3.464-3.332 3.884-0.244 4.724 2.188 5.112 14.788 11.056 29.344 15.2 44.408 6.644 24.148 17.588 46.648 25.588 70.252-14.356 0.564-20.66-10.292-27.968-19.72z" fill="#5B5B5B" /><path d="M295.896 689.036c-8-23.604-18.944-46.104-25.588-70.252-4.144-15.064-10.088-29.616-15.2-44.408-0.84-2.428-1.26-5.52-4.724-2.188a332316.88 332316.88 0 0 0-23.544-52.2l2.632-1.652c8.152 7.408 13.44 17.348 18.072 27.068 15.728 33.016 26.22 68.144 39.956 101.972 2.592 6.388 3.912 14.304 12.856 15.688 0.02 6.376 0.048 12.748 0.06 19.116 0.004 3.276 0.084 6.616-4.52 6.856zM222.728 548.752c-7.168-5.64-13.336-0.608-19.744 1.836-1.016-5.936 1.276-10.632 6.228-13.556 5.436-3.212 7.036 2.968 10.18 5.12 2.532 1.74 5.296 1.8 8.032 2.38-0.784 2.276-2.296 3.74-4.696 4.22z" fill="#6A6A6A" /><path d="M419.192 550.484c-0.148-10.352 0.36-20.616 4.276-30.396 1.488 1.496 3.436 2.744 4.4 4.52 18.632 34.388 39.164 67.74 55.216 103.524 4.832 10.772 8.656 21.344 10.012 33.264 2.784 24.492 6.836 48.852 10.612 73.228 2.628 16.96 8.696 34.028 7.764 50.744-1.244 22.312 0.028 44.584-1.484 66.792-0.708 10.332 2.88 15.684 13.26 16.232 0.648 0.088 1.3 0.18 1.948 0.284l-0.02 10.46c-7.408 1.856-15.176 2.484-21.96 6.456-8.56 1.968-13.1 5.792-7.416 14.968 1.032 1.668 1.504 4.228 1.116 6.14-3.708 18.14-0.996 36.452-1.684 54.66l-2.448 0.136c-6.212-1.736-6.232-6.888-6.4-11.832-0.236-7.04-0.264-14.088-0.38-21.128-0.644-7.752 2.328-15.804-1.872-23.276-0.536-3.856-1.808-7.54-2.52-11.388-6.564-35.468-17.428-69.464-37.512-99.816-5.032-7.604-11.94-13.716-22.536-11.364l-0.176-84.96c3.664 0.86 5.384 7.42 9.444 4.796 2.784-1.804 3.336-6.704 3.328-10.632-0.008-3.868-0.152-7.728-0.232-11.584l0.408-4.296c4.176 1.072 4.644 5.128 6.456 8.08 7.484 12.172 13.028 25.564 22.288 36.572 2.604 3.092 6.932 9.612 10.704 0.312 2.816-2.772 3.028-5.78 2.28-9.752-1.52-8.064-1.572-16.408-3.064-24.48-3.156-17.092-3.44-34.66-8.46-51.432l-0.348-2.672c0.296-2.256 0.828-4.592-1.8-5.968-5.832-22.436-20.096-40.592-30.792-60.56-3.18-5.92-5.928-12.296-12.408-15.632z" fill="#983E23" /><path d="M825.944 820.916l10.992-2.12c25.084-0.22 32.188 6.936 32.18 32.392 0 11.484 0.028 22.968 0.044 34.456-14.712 8.388-31.576 8.112-47.484 11.56-23.004 4.976-46.2 9.1-69.304 13.592-2.748-20.516-3.168-41.04-0.3-61.592 0.584-4.22 0.544-8.524 0.796-12.788 24.104-6.344 49.14-8.344 73.076-15.5z m-38.968 73.468l3.508 2.46c15.516 1.124 30.26-3.172 45.124-6.516 18.924-4.256 24.58-22.132 11.928-37.312-0.66-6.08-3.876-8.5-10.12-8.396-14.092 0.24-27.664 3.572-41.132 6.936-14.736 3.684-19.872 12.328-17.864 27.252 0.86 6.36 5.508 10.696 8.752 15.776l-0.196-0.2z" fill="#FD5F53" /><path d="M495.232 961.364c0.688-18.208-2.02-36.52 1.684-54.66 0.392-1.916-0.084-4.472-1.116-6.14-5.684-9.176-1.144-13 7.416-14.964 5.14 10.036 12.22 12.604 23.608 9.384 13.68-3.872 28.304-4.308 42.152-7.724 9.196-2.264 19.512-1.016 27.52-7.624 4.612 1.528 4.04 5.048 3.696 8.804-1.6 17.18-1.136 34.384-0.32 51.584-13.072 6.492-27.58 6.996-41.524 9.656-21.012 4.016-41.708 9.804-63.116 11.684z m19.212-12.832c0.732 2 2.648 1.916 4.236 2.424 15.432-0.016 30.18-4.512 45.128-7.408 7.992-1.548 14.26-7.016 15.22-16.028 0.924-8.672 1.472-17.504-8.356-22.272-2.9-3.564-7.232-5.96-11.196-5.38-15.5 2.284-31.392 2.72-46.248 8.408-6.264 2.404-10.76 6.232-12.288 13.576-3.096 14.96-3.06 15.628 13.572 26.736l-0.068-0.056z" fill="#FD504A" /><path d="M421.564 782.696c10.596-2.352 17.5 3.756 22.536 11.364 20.084 30.352 30.948 64.348 37.512 99.816 0.712 3.848 1.984 7.532 2.52 11.392-6.024 0.772-12.356 0.64-18 2.548-8.216 2.772-10.996-1.764-13.736-7.744-12.408-27.084-24.632-54.256-37.476-81.132-5.78-12.092-13.54-22.82-27.964-25.968 0.668-3.196 4.5-1.396 5.756-3.64a18736.64 18736.64 0 0 0 28.852-6.636z" fill="#AAA8A8" /><path d="M433.928 680.312c0.084 3.86 0.224 7.72 0.232 11.584 0.008 3.928-0.544 8.828-3.328 10.632-4.064 2.624-5.78-3.936-9.444-4.796-3.488-5.92-6.976-11.844-10.468-17.76l-0.64-3.96c1.208-5.768-1.684-12.644 4.584-17.064 4.552 8.732 4.972 21.144 19.064 21.364z" fill="#332F2F" /><path d="M410.28 676.012l0.64 3.96c-4.36 0.456-8.236-0.464-11.188-3.98l10.548 0.02z" fill="#9B8151" /><path d="M386.956 792.968c14.42 3.148 22.184 13.876 27.964 25.968 12.84 26.876 25.068 54.048 37.476 81.132 2.74 5.976 5.52 10.516 13.736 7.744 5.644-1.908 11.976-1.772 18-2.548 4.2 7.468 1.232 15.52 1.872 23.272-15.084 2.508-15.42 3.048-12.576 20.104-10.24 1.964-13.988-5.084-17.024-12.612-14.288-35.484-25.008-72.364-42.5-106.608-7.26-14.22-14.824-27.512-31.472-32.292 1.512-1.384 3.016-2.772 4.524-4.16z" fill="#7C7777" /><path d="M523.248 868.392c-10.384-0.548-13.968-5.9-13.26-16.232 1.512-22.208 0.24-44.48 1.484-66.792 0.932-16.716-5.136-33.78-7.764-50.744-3.776-24.376-7.828-48.736-10.612-73.228-1.356-11.92-5.18-22.492-10.012-33.264-16.052-35.784-36.584-69.136-55.216-103.524-0.964-1.776-2.912-3.024-4.4-4.52-0.664-7.824 6.368-9.164 10.744-12.736-0.544 5.576 1.296 10.332 4.044 15.2 19.016 33.744 37.628 67.712 56.736 101.404 4.376 7.716 10.192 14.608 15.344 21.888-0.428 26.476 6.9 51.976 9.824 78.032 0.24 2.124 0.276 4.272 0.408 6.408-6.78-0.916-8.164 0.836-6.868 8.288 4.392 25.188 10.94 50.084 9.564 76.136-0.952 17.844-0.076 35.784-0.016 53.684z" fill="#D23939" /><path d="M473.784 720.968c-3.776 9.308-8.1 2.788-10.708-0.304-9.256-11.008-14.804-24.4-22.288-36.572-1.812-2.948-2.276-7.008-6.456-8.08l0.036 0.04c-1.716-9.432-7.824-16.544-12.832-24.236-3.668-11.736-12.528-21.492-12.42-34.74 0.152-18.24-0.532-36.484-0.388-54.724 0.032-4.204 1.908-8.428 6.448-10.412 15.412 27.856 32.628 54.784 43.292 85.06 0.756 19.92 5.032 39.4 7.684 59.08 1.168 8.664 0.256 18.084 7.632 24.888z" fill="#332F2F" /><path d="M458.468 637.008c-10.664-30.272-27.88-57.204-43.292-85.06l4.016-1.464c6.484 3.336 9.228 9.712 12.4 15.628 10.696 19.964 24.964 38.12 30.796 60.552 0.16 2.124-0.228 4.416 1.8 5.976l0.352 2.664c0.456 9.384-4.512-0.5-6.072 1.704zM433.928 680.312c-14.092-0.22-14.512-12.632-19.064-21.364 1.772-7.152 4.244 0.26 6.332-0.296 5.688 4.82 4.86 14.572 13.172 17.404l-0.036-0.04-0.404 4.296z" fill="#6A6A6A" /><path d="M434.372 676.056c-8.312-2.832-7.484-12.584-13.172-17.404l0.34-6.824c5.008 7.684 11.116 14.792 12.832 24.228z" fill="#983E23" /><path d="M685.444 739.144c-5.1 7.512-13.656 6.668-20.944 7.972-14.488 2.592-28.312 7.112-41.976 12.312-2.976 1.132-6.548 2.6-5.94 6.592 0.576 3.788 4.264 4.684 7.44 4.952 4.624 0.4 9.788 1.468 13.876-0.044 11.804-4.38 19.116 2.12 27.072 8.856 6.5 5.496 14.556 9.016 20.56 15.268-16.824 6.12-34.888 6.376-51.996 10.948-18.968 5.08-40.28 3.888-55.368 19.86-7.22-3.72-11.056-10.624-13.5-17.5-5.104-14.344-15.28-19.696-29.48-19.908-2.712-0.04-6.404 0.9-7.248-2.884-1.896-8.464-5.888-17.072 0.184-25.52 7.268 5.704 15.088 6.76 24.26 4.916 44.288-8.888 88.696-17.26 133.06-25.82z" fill="#FD5F53" /><path d="M528.116 760.06c-6.072 8.448-2.08 17.056-0.184 25.52 0.848 3.78 4.54 2.844 7.248 2.884 14.2 0.212 24.376 5.564 29.48 19.908 2.444 6.876 6.28 13.78 13.484 17.492a76.168 76.168 0 0 0-2.86 26.5c0.3 4.58-1.172 6.6-6.148 7.964-14.456 3.972-29.448 4.816-43.94 8.352a81.592 81.592 0 0 0-1.948-0.284c-0.064-17.9-0.936-35.84 0.008-53.684 1.38-26.052-5.172-50.948-9.564-76.136-1.296-7.452 0.084-9.208 6.868-8.288 2.816 9.844 2.184 20.572 7.556 29.772z" fill="#FD504A" /><path d="M702.736 736.376c-3.428 2.296-6.656 5.828-11.14 1.86 3.388-2.58 7.34-1.752 11.14-1.86zM726.344 731.848c-3.172 4.204-7.584 1.972-11.516 2.216 3.412-2.964 7.48-2.5 11.516-2.216z" fill="#FD5F53" /><path d="M737.16 729.688c-2.964 4.084-7.208 2.076-10.98 2.288 3.236-2.82 7.068-2.724 10.98-2.288z" fill="#FD5F53" /><path d="M747.984 727.524c-2.96 4.112-7.212 2.08-10.984 2.288 3.244-2.764 7.12-2.48 10.984-2.288zM713.548 734.204c-2.6 3.4-6.212 2.056-9.54 2.032 2.736-2.744 6.196-2.12 9.54-2.032z" fill="#FD5F53" /><path d="M525.2 868.676c14.492-3.536 29.484-4.38 43.94-8.352 4.976-1.364 6.448-3.388 6.148-7.964a76.168 76.168 0 0 1 2.86-26.5c15.1-15.964 36.416-14.772 55.384-19.852 17.108-4.576 35.172-4.828 51.996-10.948 8.652 0.048 16.904-2.304 25.276-4.036 14.272-2.952 21.844-0.008 28.672 10.484-25.1-1.496-48.52 7.74-72.788 11.54-18.308 2.868-36.476 6.632-54.668 10.204-6.432 1.264-12.108 4.104-15.52 10.192-3.508 2.268-5.68 5.796-5.928 9.62-0.56 8.436-0.296 16.928-0.368 25.408-3.868 0.408-7.772 0.608-11.592 1.264-17.824 3.064-35.62 6.256-53.428 9.404l0.016-10.464z" fill="#A5322C" /><path d="M525.18 879.136c17.808-3.144 35.604-6.34 53.428-9.404 3.82-0.656 7.728-0.86 11.592-1.264l6.296 9.54a8.472 8.472 0 0 0 0 1.624c-8.008 6.608-18.324 5.36-27.52 7.624-13.848 3.416-28.472 3.852-42.152 7.724-11.388 3.224-18.468 0.652-23.608-9.384 6.784-3.976 14.556-4.604 21.964-6.46z" fill="#FD5F53" /><path d="M596.5 878.008l-6.296-9.54c0.072-8.476-0.192-16.968 0.368-25.408 0.248-3.824 2.42-7.352 5.928-9.62 3.756 3.38 3.24 8.176 2.272 11.916-2.788 10.824-1.224 21.804-2.272 32.652z" fill="#332F2F" /><path d="M739.416 801.452c1.32 0.212 1.98 0.968 1.92 2.324l-1.92-2.324z" fill="#A5322C" /><path d="M702.452 756.26c-2.488 0-3.228 0.112-3.92-0.02-2.884-0.544-7.436 1.688-8.012-2.86-0.424-3.372 3.708-3.672 6.356-4.616 13.888-4.968 28.316-7.812 42.784-10.216 14.8-2.456 29.752-4.008 44.636-5.964 3.264-0.428 7.38-1.072 8.288 2.756 1.124 4.728-4.088 4.24-6.624 5.112-27.62 9.524-56.376 13.096-83.508 15.808z" fill="#FEFEFE" /><path d="M458.468 637.008c1.564-2.204 6.528 7.68 6.072-1.704 5.016 16.78 5.304 34.348 8.46 51.44 1.492 8.076 1.544 16.416 3.064 24.48 0.748 3.968 0.532 6.976-2.28 9.752-7.372-6.812-6.46-16.236-7.628-24.892-2.656-19.676-6.932-39.156-7.688-59.076zM464.184 632.64c-2.024-1.564-1.64-3.852-1.8-5.976 2.628 1.384 2.096 3.72 1.8 5.976z" fill="#5B5B5B" /><path d="M847.54 853.016c12.648 15.18 6.996 33.056-11.928 37.312-14.864 3.344-29.608 7.64-45.124 6.516-0.92-1.172-1.608-2.68-3.508-2.46l0.196 0.204c-2.96-30.836-1.944-32.264 27.764-38.456 4.904-1.02 9.832-1.876 14.76-2.76 5.924-1.068 11.836-3.172 17.84-0.356z" fill="#FEFEFE" /><path d="M847.54 853.016c-6.004-2.816-11.916-0.712-17.84 0.352-4.928 0.888-9.86 1.744-14.76 2.76-29.712 6.192-30.728 7.62-27.764 38.456-3.244-5.08-7.892-9.416-8.752-15.772-2.008-14.924 3.128-23.572 17.864-27.252 13.468-3.368 27.04-6.7 41.132-6.936 6.244-0.108 9.46 2.312 10.12 8.392z" fill="#A5322C" /><path d="M786.976 894.384c1.9-0.22 2.584 1.288 3.508 2.46l-3.508-2.46z" fill="#A5322C" /><path d="M570.672 905.248c9.828 4.768 9.28 13.6 8.356 22.272-0.956 9.012-7.228 14.48-15.22 16.028-14.948 2.896-29.696 7.392-45.136 7.408l-4.228-2.424 0.068 0.056c-0.916-6.728-0.22-13.6-0.892-20.212-0.996-9.804 3.592-14.148 11.8-15.708 15.012-2.84 29.848-6.904 45.252-7.42z" fill="#FEFEFE" /><path d="M570.672 905.248c-15.404 0.516-30.24 4.58-45.248 7.416-8.208 1.56-12.796 5.904-11.8 15.708 0.672 6.608-0.028 13.484 0.892 20.212-16.632-11.104-16.668-11.772-13.572-26.736 1.524-7.344 6.02-11.172 12.288-13.576 14.86-5.688 30.752-6.12 46.248-8.408 3.96-0.576 8.292 1.824 11.192 5.384z" fill="#A5322C" /><path d="M514.444 948.532l4.228 2.424c-1.58-0.508-3.496-0.424-4.228-2.424z" fill="#A5322C" /></svg>