<svg width="94" height="80" viewBox="0 0 94 80" fill="none" xmlns="http://www.w3.org/2000/svg">
<path d="M80.293 18.5936C78.612 15.7889 75.5357 14.0471 72.2674 14.0471H60.8706V4.68235C60.8706 2.09301 58.7776 0 56.1882 0H9.36471C4.20007 0 0 4.20007 0 9.36471V56.1882C0 59.6813 1.94786 62.7014 4.79005 64.3074C5.36598 72.8246 12.4082 79.6 21.0706 79.6C29.3068 79.6 36.0728 73.4708 37.22 65.5529H51.7447C52.8919 73.4708 59.6579 79.6 67.8941 79.6C76.1304 79.6 82.8964 73.4708 84.0435 65.5529H84.2824C89.447 65.5529 93.6471 61.3529 93.6471 56.1882V42.1412C93.6471 41.289 93.4176 40.4602 92.9775 39.7298L80.293 18.5936ZM60.8706 23.4118H72.2674L80.6957 37.4588H60.8706V23.4118ZM21.0706 70.2353C17.1983 70.2353 14.0471 67.0841 14.0471 63.2118C14.0471 59.3395 17.1983 56.1882 21.0706 56.1882C24.9429 56.1882 28.0941 59.3395 28.0941 63.2118C28.0941 67.0841 24.9429 70.2353 21.0706 70.2353ZM67.8941 70.2353C64.0218 70.2353 60.8706 67.0841 60.8706 63.2118C60.8706 59.3395 64.0218 56.1882 67.8941 56.1882C71.7664 56.1882 74.9176 59.3395 74.9176 63.2118C74.9176 67.0841 71.7664 70.2353 67.8941 70.2353Z" fill="#F2921F"/>
</svg>
