<svg width="94" height="94" viewBox="0 0 94 94" fill="none" xmlns="http://www.w3.org/2000/svg">
<path d="M46.8235 0C21.005 0 0 21.005 0 46.8235C0 72.642 21.005 93.6471 46.8235 93.6471C72.642 93.6471 93.6471 72.642 93.6471 46.8235C93.6471 21.005 72.642 0 46.8235 0ZM83.9593 42.1412H71.0173C70.4741 32.0039 67.5991 22.0071 62.6265 12.9092C74.042 18.2518 82.3251 29.1617 83.9593 42.1412ZM49.3052 9.49113C54.1514 15.8779 60.6692 27.1904 61.6057 42.1412H32.9169C33.5678 29.9858 37.5712 18.5983 44.3934 9.48645C45.1988 9.43962 46.0041 9.36471 46.8235 9.36471C47.6617 9.36471 48.4811 9.43962 49.3052 9.49113ZM31.3156 12.7688C26.7081 21.6231 24.0486 31.6621 23.5522 42.1412H9.68779C11.336 29.0493 19.7455 18.0598 31.3156 12.7688ZM9.68779 51.5059H23.6131C24.2499 62.6452 26.7269 72.4735 30.8988 80.6769C19.5441 75.311 11.3126 64.4385 9.68779 51.5059ZM44.2482 84.1559C37.6883 76.2053 33.816 65.066 32.9684 51.5059H61.5917C60.6177 64.4901 56.3615 75.8354 49.4035 84.1513C48.5513 84.2074 47.6991 84.2824 46.8235 84.2824C45.9526 84.2824 45.1051 84.2074 44.2482 84.1559ZM63.0292 80.5412C67.5008 72.141 70.2306 62.2753 70.947 51.5059H83.9546C82.3485 64.3308 74.234 75.1377 63.0292 80.5412Z" fill="#F2921F"/>
</svg>
